<svg xmlns="http://www.w3.org/2000/svg" width="256" height="256" viewBox="0 0 100 100"><rect width="100" height="100" rx="20" fill="#3d3a3a"></rect><path fill="#fff" d="M35.68 50L35.68 50Q35.68 53.45 36.41 55.74Q37.15 58.03 38.28 59.38Q39.40 60.73 40.70 61.28Q42.00 61.83 43.13 61.83L43.13 61.83Q43.98 61.83 44.70 61.60Q45.42 61.38 45.97 61.09Q46.51 60.80 46.89 60.58Q47.27 60.36 47.47 60.36L47.47 60.36Q47.78 60.36 47.90 60.46Q48.02 60.56 48.19 60.83L48.19 60.83L49.38 62.68Q49.56 62.95 49.56 63.16L49.56 63.16Q49.56 63.40 49.42 63.54Q49.28 63.67 49.15 63.77L49.15 63.77Q48.02 64.56 46.38 65.43Q44.74 66.30 42.57 67.02Q40.40 67.74 37.73 68.22Q35.06 68.70 31.92 68.70L31.92 68.70Q29.36 68.70 26.79 68.29Q24.23 67.88 21.89 66.95Q19.55 66.03 17.53 64.58Q15.51 63.13 14.03 61.06Q12.54 58.99 11.68 56.24Q10.83 53.49 10.83 50L10.83 50Q10.83 46.51 11.68 43.76Q12.54 41.01 14.03 38.94Q15.51 36.88 17.53 35.42Q19.55 33.97 21.89 33.05Q24.23 32.12 26.79 31.71Q29.36 31.30 31.92 31.30L31.92 31.30Q34.72 31.30 37.32 31.73Q39.92 32.16 42.12 32.86Q44.33 33.56 46.09 34.40Q47.85 35.23 48.94 36.05L48.94 36.05Q49.08 36.16 49.21 36.29Q49.35 36.43 49.35 36.67L49.35 36.67Q49.35 36.91 49.18 37.15L49.18 37.15L47.98 38.99Q47.81 39.27 47.69 39.37Q47.57 39.47 47.27 39.47L47.27 39.47Q47.06 39.47 46.72 39.27Q46.38 39.06 45.86 38.81Q45.35 38.55 44.67 38.33Q43.98 38.11 43.13 38.11L43.13 38.11Q42.00 38.11 40.70 38.67Q39.40 39.23 38.28 40.60Q37.15 41.97 36.41 44.26Q35.68 46.55 35.68 50ZM72.35 33.76L77.69 47.13L82.44 34.31Q82.74 33.42 83.10 32.86Q83.46 32.29 84.56 32.29L84.56 32.29L88.18 32.29Q89.17 32.29 89.17 32.88L89.17 32.88Q89.17 33.25 88.79 34.11L88.79 34.11L75.70 64.97Q75.22 66.13 74.63 66.71Q74.03 67.29 72.93 67.29L72.93 67.29L67.53 67.29Q66.82 67.29 66.34 67.07Q65.86 66.85 65.53 66.51Q65.21 66.17 65.00 65.77Q64.80 65.38 64.66 65.04L64.66 65.04L50.58 35.17Q50.27 34.52 50.27 33.97L50.27 33.97Q50.27 33.08 50.92 32.69Q51.57 32.29 52.26 32.29L52.26 32.29L68.94 32.29Q69.79 32.29 70.37 32.36Q70.95 32.43 71.33 32.62Q71.70 32.81 71.94 33.08Q72.18 33.35 72.35 33.76L72.35 33.76Z"></path></svg>